<svg width="1520" height="600" viewBox="0 0 1520 600" fill="none" xmlns="http://www.w3.org/2000/svg">
<path d="M1278.6 200.1V334.3L1196.1 200.1H1142.4V400H1183.8V266.7L1266.3 400H1320V200.1H1278.6Z" fill="#D83A88"/>
<path d="M1106.5 200.1H1060.5V400H1106.5V200.1Z" fill="#D83A88"/>
<path d="M921.1 200.1L850.9 400H892.6L904.9 365.2H988.8L1001.2 400H1046.9L976.6 200.1H921.1ZM916.8 326.6L947 240.9L976.8 326.6H916.8Z" fill="#D83A88"/>
<path d="M825.2 302.2C830.4 297.2 834.4 291.3 837.2 284.5C840 277.7 841.3 270 841.3 261.2C841.3 251.5 839.8 242.8 836.9 235.1C833.9 227.4 829.5 221 823.6 215.8C817.7 210.7 810.4 206.8 801.6 204.1C792.8 201.4 782.8 200.1 771.3 200.1H672.7V400H718.4V324.6H763L795.6 400H844.7L807.3 314.2C814.1 311.1 820.1 307.1 825.2 302.2ZM793.9 271C792.8 273.8 791 276.1 788.6 278.1C786.2 280.1 783.3 281.6 779.7 282.5C776.2 283.5 771.7 283.9 766.4 283.9H718.4V240.9H767.3C774 240.9 779.4 241.6 783.6 243C787.8 244.4 790.8 246.7 792.7 249.7C794.6 252.7 795.6 256.7 795.6 261.4C795.6 265.1 795 268.3 793.9 271Z" fill="#D83A88"/>
<path d="M543.9 399.8H592.3L665.2 200H616.7L543.9 399.8Z" fill="#D83A88"/>
<path d="M530.8 200L458 399.8H506.5L579.3 200H530.8Z" fill="#D83A88"/>
<path d="M444.9 200L391.1 348.7L340.4 200.1H160V240.1H218.8V400H264.4V240.1H305.5L363.3 399.8H420.6L493.7 200H444.9Z" fill="#D83A88"/>
</svg>
